<svg width="11" height="14" viewBox="0 0 11 14" fill="none" xmlns="http://www.w3.org/2000/svg">
<path d="M9.77819 10.519V3.48172C10.4771 3.32494 11 2.72636 11 2.01142C11 1.17801 10.2894 0.5 9.41595 0.5C8.54177 0.5 7.83191 1.17801 7.83191 2.01142C7.83191 2.72636 8.35481 3.32494 9.05372 3.48172V6.65089H5.86223V3.48172C6.56187 3.32494 7.08405 2.72636 7.08405 2.01142C7.08405 1.17801 6.37346 0.5 5.5 0.5C4.62654 0.5 3.91595 1.17801 3.91595 2.01142C3.91595 2.72636 4.43887 3.32494 5.13852 3.48172V6.65089H1.94703V3.48172C2.64594 3.32494 3.16884 2.72636 3.16884 2.01142C3.16884 1.17801 2.45825 0.5 1.5848 0.5C0.71134 0.5 0 1.17801 0 2.01142C0 2.72636 0.522922 3.32494 1.22256 3.48172V7.34981H5.13852V10.519C4.43887 10.6751 3.91595 11.2743 3.91595 11.9893C3.91595 12.822 4.62654 13.5 5.5 13.5C6.37346 13.5 7.08405 12.822 7.08405 11.9893C7.08405 11.2743 6.56187 10.6751 5.86223 10.519V7.34981H9.05372V10.519C8.35481 10.6751 7.83191 11.2743 7.83191 11.9893C7.83191 12.822 8.54177 13.5 9.41595 13.5C10.2894 13.5 11 12.822 11 11.9893C11 11.2743 10.4771 10.6751 9.77819 10.519ZM1.5848 2.83228C1.11009 2.83228 0.724466 2.46435 0.724466 2.01142C0.724466 1.55918 1.11009 1.19056 1.5848 1.19056C2.05877 1.19056 2.44509 1.55918 2.44509 2.01142C2.44509 2.46435 2.05877 2.83228 1.5848 2.83228ZM6.36033 11.9893C6.36033 12.4408 5.9747 12.8094 5.5 12.8094C5.02603 12.8094 4.63971 12.4408 4.63971 11.9893C4.63971 11.5363 5.02603 11.1684 5.5 11.1684C5.9747 11.1684 6.36033 11.5363 6.36033 11.9893ZM5.5 2.83228C5.02603 2.83228 4.63971 2.46435 4.63971 2.01142C4.63971 1.55918 5.02603 1.19056 5.5 1.19056C5.9747 1.19056 6.36033 1.55918 6.36033 2.01142C6.36033 2.46435 5.9747 2.83228 5.5 2.83228ZM8.55566 2.01142C8.55566 1.55918 8.94198 1.19056 9.41595 1.19056C9.88993 1.19056 10.2762 1.55918 10.2762 2.01142C10.2762 2.46435 9.88993 2.83228 9.41595 2.83228C8.94198 2.83228 8.55566 2.46435 8.55566 2.01142ZM9.41595 12.8094C8.94198 12.8094 8.55566 12.4408 8.55566 11.9893C8.55566 11.5363 8.94198 11.1684 9.41595 11.1684C9.88993 11.1684 10.2762 11.5363 10.2762 11.9893C10.2762 12.4408 9.88993 12.8094 9.41595 12.8094Z" fill="#4F008C"/>
</svg>
