<svg width="49" height="49" viewBox="0 0 49 49" fill="none" xmlns="http://www.w3.org/2000/svg">
<path d="M8.35083 31.1844C8.62401 32.4737 8.91188 33.6822 9.12687 34.9029C9.27938 35.7684 9.72896 36.4115 10.3837 36.948C11.4979 37.86 12.8043 38.369 14.1794 38.7041C17.8734 39.6045 21.6145 39.6008 25.3642 39.1843C27.3077 38.9687 29.1997 38.5258 30.9117 37.5189C32.0497 36.8494 32.8747 35.9772 33.0487 34.5691C33.1804 33.5033 33.4296 32.4462 33.7022 31.4055C33.8259 30.9339 34.0446 30.4274 34.3723 30.0795C36.7812 27.5161 39.2282 24.9884 41.6623 22.4489C41.8313 22.2725 41.9912 22.0869 42.2006 21.8554C39.6134 21.0469 37.0771 20.6647 34.4733 20.8809C31.202 21.1529 28.3943 22.3687 26.3185 25.0129C26.1391 25.2413 25.9816 25.4857 25.8003 25.7417C26.0117 25.8495 26.1378 25.9083 26.2591 25.9763C27.5974 26.7242 28.1425 28.2224 27.5723 29.5839C27.0045 30.9394 25.5278 31.6346 24.086 31.1997C20.7515 30.1946 17.3423 29.8057 13.8719 29.9925C11.9952 30.0929 10.1577 30.4286 8.34961 31.185L8.35083 31.1844Z" fill="#522B84"/>
<path d="M41.6976 20.3878C41.7092 20.345 41.7393 20.2972 41.7288 20.2604C41.6835 20.1036 41.6327 19.9474 41.572 19.7955C40.6337 17.468 39.2207 15.4817 37.276 13.8898C33.9207 11.1428 29.9597 10.2332 25.7414 10.1597C25.5478 10.1566 25.2612 10.4745 25.165 10.7042C23.8414 13.8714 23.2705 17.1679 23.5841 20.5967C23.7269 22.1604 24.0601 23.6843 24.6915 25.2247C24.8802 24.9761 25.0186 24.7997 25.1509 24.6178C26.5425 22.7074 28.3469 21.3433 30.5636 20.525C32.9468 19.6455 35.4134 19.496 37.9087 19.7692C39.1784 19.9082 40.434 20.1771 41.6982 20.3872L41.6976 20.3878Z" fill="#522B84"/>
<path d="M23.6741 25.9224C23.6429 25.836 23.638 25.7858 23.611 25.7534C20.9172 22.4599 20.3213 18.6998 21.1298 14.6261C21.6179 12.165 22.5373 9.87184 23.8058 7.71217C24.2603 6.93858 24.0251 6.17663 23.2913 6.02718C22.7241 5.91141 22.3627 6.18949 22.0828 6.65928C20.875 8.68726 19.9722 10.842 19.4007 13.1297C18.2651 17.6745 18.5946 22.0122 21.2829 26.0026C21.3239 26.0633 21.3288 26.1484 21.3478 26.2133C19.9728 26.0774 18.6473 25.9059 17.317 25.822C13.5513 25.5855 9.87081 25.9677 6.36547 27.472C5.43876 27.8695 5.07248 28.6983 5.42283 29.5184C5.75848 30.3042 6.61537 30.6313 7.49308 30.2565C11.0248 28.7466 14.7163 28.5574 18.4703 28.9255C19.7167 29.048 20.9552 29.2587 22.2378 29.4345C21.8783 27.8744 22.3768 26.7144 23.6741 25.923V25.9224Z" fill="#522B84"/>
<path d="M24.943 26.8395C24.0151 26.8456 23.2868 27.5666 23.2813 28.4847C23.2758 29.4261 24.0371 30.1599 24.9987 30.1403C25.9163 30.1219 26.65 29.3673 26.6292 28.4633C26.6084 27.55 25.8642 26.8328 24.943 26.8389V26.8395Z" fill="#522B84"/>
</svg>
