<svg width="41" height="41" viewBox="0 0 41 41" fill="none" xmlns="http://www.w3.org/2000/svg">
<path d="M24.1991 31.6551C21.9011 31.3676 19.683 31.0508 17.4562 30.8218C14.6087 30.5286 11.7464 30.3718 8.89948 30.7644C7.81503 30.914 6.74032 31.2528 5.71019 31.6371C4.94247 31.9236 4.36693 32.5207 4.21625 33.3976C3.94514 34.9735 5.00345 36.1287 6.74288 36.1302C13.0528 36.1364 19.3627 36.1333 25.6726 36.1323C27.146 36.1323 27.8774 35.5337 28.1936 34.0833C29.975 25.9187 31.758 17.754 33.5384 9.58888C34.0058 7.44611 34.4661 5.30181 34.9519 3.05245C34.5568 3.05245 34.2303 3.01914 33.9131 3.05809C32.6549 3.21235 31.7529 3.95291 31.0077 4.91077C29.9709 6.24379 29.3985 7.79359 29.0418 9.42026C27.8015 15.0696 26.5843 20.724 25.3564 26.3763C24.972 28.1465 24.5804 29.9146 24.1986 31.6546L24.1991 31.6551Z" fill="#522B84"/>
<path d="M15.3463 25.7711C17.7556 25.7711 20.1648 25.7562 22.5736 25.7798C23.308 25.787 23.7037 25.5235 23.8533 24.7778C24.2115 22.9974 24.6251 21.2277 25.0121 19.453C26.0427 14.7272 27.0826 10.0035 28.0784 5.27106C28.1516 4.92359 28.0281 4.36035 27.7811 4.15074C26.7064 3.23951 25.4298 2.79876 24.0281 3.19185C21.7782 3.82325 20.5805 5.49861 19.9901 7.63574C19.4212 9.69496 19.6072 11.8095 19.7682 13.9046C19.8835 15.4088 20.1833 16.9033 20.2228 18.4069C20.2725 20.315 19.166 21.2467 17.2882 21.0028C15.8383 20.8142 14.3982 20.5523 12.956 20.3073C10.8245 19.945 9.20913 20.7301 8.06831 22.5213C7.71519 23.0753 7.41487 23.6708 7.15759 24.2761C6.71479 25.3165 7.04177 25.7695 8.19028 25.7705C10.576 25.7736 12.9611 25.7716 15.3468 25.7711H15.3463Z" fill="#522B84"/>
<path d="M8.37897 26.9872C8.37897 27.6617 8.35437 28.27 8.38717 28.8753C8.41229 29.3442 8.7039 29.5923 9.18411 29.5923C13.3589 29.5923 17.5343 29.604 21.7086 29.5656C21.9797 29.563 22.4348 29.2058 22.4794 28.9557C22.5911 28.3259 22.5163 27.6632 22.5163 26.9867H8.37897V26.9872Z" fill="#522B84"/>
<path d="M15.3463 25.7711C12.9607 25.7711 10.5755 25.7731 8.18979 25.77C7.04128 25.7685 6.71431 25.316 7.15711 24.2756C7.41438 23.6703 7.71471 23.0748 8.06782 22.5208C9.20916 20.7296 10.824 19.945 12.9555 20.3068C14.3972 20.5518 15.8378 20.8137 17.2877 21.0023C19.1655 21.2467 20.272 20.3145 20.2223 18.4064C20.1833 16.9028 19.8835 15.4083 19.7677 13.9041C19.6068 11.809 19.4207 9.69445 19.9896 7.63522C20.58 5.4981 21.7777 3.82274 24.0276 3.19134C25.4293 2.79825 26.7059 3.239 27.7806 4.15023C28.0276 4.35984 28.1506 4.92307 28.0779 5.27055C27.0821 10.0035 26.0422 14.7272 25.0116 19.4524C24.6246 21.2272 24.2111 22.9969 23.8528 24.7773C23.7027 25.523 23.3075 25.7864 22.5731 25.7793C20.1644 25.7557 17.7551 25.7705 15.3458 25.7705L15.3463 25.7711Z" fill="#522B84"/>
<path d="M8.37875 26.9872H22.5156C22.5156 27.6637 22.5899 28.3264 22.4787 28.9563C22.4346 29.2064 21.979 29.5636 21.7079 29.5661C17.533 29.6046 13.3582 29.5933 9.18338 29.5928C8.70317 29.5928 8.41207 29.3452 8.38644 28.8758C8.35364 28.2705 8.37824 27.6617 8.37824 26.9877L8.37875 26.9872Z" fill="#522B84"/>
</svg>
