<svg width="41" height="41" viewBox="0 0 41 41" fill="none" xmlns="http://www.w3.org/2000/svg">
<path d="M17.1 31.037C14.0752 31.037 11.0504 31.0396 8.02563 31.036C6.72901 31.0344 6.22881 30.3989 6.79819 29.2612C7.41268 28.0322 8.10712 26.8078 8.96914 25.7459C10.1248 24.3232 11.7643 23.8579 13.5714 24.1152C15.5871 24.4022 17.5909 24.7732 19.6092 25.0382C21.899 25.3385 23.2838 24.1921 23.2756 21.8884C23.2705 20.398 22.9891 18.9087 22.8394 17.4183C22.5391 14.4289 22.2434 11.4359 22.9061 8.45727C23.3668 6.38729 24.4559 4.69706 26.1825 3.45886C28.1981 2.0131 30.8924 2.15916 32.7845 3.7556C33.2565 4.15381 33.3334 4.62531 33.2058 5.20341C31.8446 11.3888 30.4931 17.5767 29.1422 23.7641C28.7076 25.7536 28.2807 27.7452 27.8512 29.7363C27.6236 30.791 27.332 31.0365 26.2414 31.038C23.1941 31.0426 20.1473 31.0396 17.1 31.0396V31.037Z" fill="#522B84"/>
<path d="M7.15401 25.8034C6.03573 24.7051 6.33503 23.2121 7.73723 22.7176C8.94007 22.2932 10.1485 21.8827 11.3662 21.5024C12.7315 21.0755 14.0753 21.4702 15.4196 21.6808C15.9485 21.7638 16.4754 21.8591 17.0699 21.9606C17.3712 20.8582 17.6623 19.7922 17.9862 18.6068C17.0089 18.7923 16.1325 18.9302 15.271 19.1306C14.4597 19.3187 13.8232 19.0937 13.2861 18.4813C12.444 17.5208 11.5861 16.5737 10.7466 15.6102C10.025 14.782 10.0624 13.6971 10.8174 13.0293C11.5723 12.3615 12.646 12.4594 13.386 13.2737C13.9134 13.8544 14.45 14.4289 14.942 15.0388C15.23 15.3955 15.5221 15.5129 15.9767 15.4119C17.5931 15.0521 19.2167 14.7252 20.8388 14.3905C20.9649 14.3644 21.0986 14.3725 21.2375 14.3638C21.4917 16.7685 21.7474 19.147 21.9883 21.5271C22.0175 21.8135 21.9914 22.1123 21.9453 22.3978C21.7915 23.349 21.3082 23.842 20.3509 23.76C18.9948 23.6437 17.6536 23.3608 16.3016 23.1819C15.1039 23.0235 13.9031 22.8442 12.6987 22.7924C10.8133 22.7114 9.27371 23.5284 7.9858 24.8593C7.70751 25.1473 7.45484 25.46 7.15401 25.8028V25.8034Z" fill="#522B84"/>
<path d="M8.36952 32.4669H26.1358C26.1358 33.3514 26.1979 34.2181 26.1138 35.0704C26.0585 35.6295 25.5475 35.7397 25.0319 35.7376C22.8599 35.7294 20.688 35.7346 18.516 35.7346C15.5599 35.7346 12.6043 35.7356 9.64821 35.7346C8.635 35.7346 8.37414 35.4758 8.37004 34.4738C8.36747 33.8265 8.37004 33.1792 8.37004 32.4674L8.36952 32.4669Z" fill="#522B84"/>
<path d="M23.3198 4.48489C21.3862 7.13707 21.1873 10.1301 21.2253 13.1759C19.184 12.8135 17.7172 10.4555 18.0795 8.16669C18.4567 5.78407 20.6897 4.16099 23.3198 4.48489Z" fill="#522B84"/>
</svg>
