<svg width="240" height="214" viewBox="0 0 240 214" fill="none" xmlns="http://www.w3.org/2000/svg">
<path opacity="0.2" fill-rule="evenodd" clip-rule="evenodd" d="M229.598 107C229.598 166.094 181.534 214 122.245 214C62.9546 214 14.8906 166.094 14.8906 107C14.8906 47.9055 62.9546 0 122.245 0C181.534 0 229.598 47.9055 229.598 107C229.598 166.094 229.598 107 229.598 107Z" fill="url(#paint0_linear_1878_213024)"/>
<path fill-rule="evenodd" clip-rule="evenodd" d="M74.4658 113.864H70.9018V119.336C70.9018 121.784 70.2275 123.609 68.879 124.905C67.5304 126.201 65.7484 126.825 63.5811 126.825C61.4138 126.825 59.6318 126.201 58.2833 124.905C56.9347 123.609 56.2604 121.784 56.2604 119.336V113.864H32.9499C30.9752 113.864 29.3858 113.288 28.2299 112.088C27.074 110.888 26.4961 109.4 26.4961 107.623C26.4961 105.847 27.1222 104.023 28.3263 102.247L56.9829 61.4439C57.7535 60.3399 58.7167 59.5238 59.8726 58.9958C61.0285 58.4677 62.2326 58.1797 63.5329 58.1797C65.5076 58.1797 67.2414 58.8517 68.7345 60.1478C70.2275 61.4439 70.95 63.2681 70.95 65.5722V102.439H74.514C79.1376 102.487 81.4975 104.359 81.4975 108.103C81.4975 111.944 79.1376 113.864 74.4658 113.864ZM56.3086 81.4134L41.6191 102.487H56.3086V81.4134Z" fill="#46B399"/>
<path fill-rule="evenodd" clip-rule="evenodd" d="M205.42 113.864H201.856V119.336C201.856 121.784 201.182 123.609 199.833 124.905C198.485 126.201 196.703 126.825 194.536 126.825C192.368 126.825 190.586 126.201 189.238 124.905C187.889 123.609 187.215 121.784 187.215 119.336V113.864H163.856C161.881 113.864 160.292 113.288 159.136 112.088C157.98 110.888 157.402 109.4 157.402 107.623C157.402 105.847 158.028 104.023 159.233 102.247L187.889 61.4439C188.66 60.3399 189.623 59.5238 190.779 58.9958C191.935 58.4677 193.139 58.1797 194.439 58.1797C196.414 58.1797 198.148 58.8517 199.641 60.1478C201.134 61.4439 201.856 63.2681 201.856 65.5722V102.439H205.42C210.092 102.487 212.452 104.359 212.452 108.103C212.452 111.944 210.092 113.864 205.42 113.864ZM187.263 81.4134L172.573 102.487H187.263V81.4134Z" fill="#46B399"/>
<path fill-rule="evenodd" clip-rule="evenodd" d="M148.732 90.3913C148.732 106.776 135.406 120.058 118.967 120.058C102.529 120.058 89.2031 106.776 89.2031 90.3913C89.2031 74.0071 102.529 60.7251 118.967 60.7251C135.406 60.7251 148.732 74.0071 148.732 90.3913C148.732 106.776 148.732 90.3913 148.732 90.3913Z" fill="url(#paint1_linear_1878_213024)"/>
<path d="M102.74 106.52C101.295 105.08 101.295 102.728 102.74 101.287L129.903 74.2134C131.348 72.7733 133.708 72.7733 135.153 74.2134C136.598 75.6535 136.598 78.0057 135.153 79.4458L108.038 106.568C107.315 107.288 106.352 107.624 105.389 107.624C104.426 107.624 103.511 107.24 102.74 106.52Z" fill="#46B399"/>
<path d="M36.4674 132.825C37.4788 124.569 42.6321 120.536 42.873 120.344L44.4141 122.36L43.6435 121.352L44.4141 122.36C44.366 122.408 39.8387 126.009 38.9718 133.161C38.0567 140.938 41.5726 149.866 49.4712 159.707L47.4965 161.339C39.1644 150.923 35.4559 141.322 36.4674 132.825Z" fill="#BEC9DB"/>
<path d="M44.606 122.89L46.2435 121.882C47.0623 121.354 47.2549 120.25 46.677 119.482L46.4843 119.242C45.9064 118.522 44.7987 118.425 44.1244 119.05L42.6795 120.346C41.9089 120.922 41.9089 122.122 42.6795 122.746C43.2093 123.226 44.0281 123.274 44.606 122.89Z" fill="#102C56"/>
<path d="M65.2656 162.3C75.8613 155.436 82.0261 148.043 83.6155 140.315C85.0604 133.21 81.9298 128.458 81.8816 128.41L84.0008 126.97C84.1453 127.21 87.8056 132.682 86.1199 140.795C84.3861 149.243 77.836 157.164 66.6623 164.461L65.2656 162.3Z" fill="#BEC9DB"/>
<path d="M81.5955 128.841L80.3433 127.353C79.7172 126.585 79.9099 125.481 80.7286 124.905L81.0176 124.713C81.7882 124.185 82.8959 124.473 83.3294 125.289L84.2926 126.969C84.7742 127.833 84.3889 128.937 83.4739 129.321C82.7996 129.609 82.029 129.417 81.5955 128.841Z" fill="#102C56"/>
<path fill-rule="evenodd" clip-rule="evenodd" d="M138.085 132.371C143.003 133.928 145.724 139.164 144.162 144.066C142.6 148.968 137.347 151.679 132.429 150.123C127.51 148.566 124.79 143.33 126.352 138.428C127.914 133.526 133.167 130.814 138.085 132.371C143.003 133.928 138.085 132.371 138.085 132.371Z" fill="url(#paint2_linear_1878_213024)"/>
<path d="M92.6227 157.692L74.7063 182.99C72.1537 186.59 67.4819 187.982 63.34 186.35C59.3906 184.814 56.9825 180.926 57.3197 176.749L57.6086 172.717C59.4388 172.669 61.269 172.189 62.8583 171.229C63.1473 171.037 63.4363 170.893 63.7253 170.701C66.0852 169.021 67.6264 166.524 68.0599 163.692C68.2044 162.732 67.5301 161.82 66.5668 161.628C65.6036 161.484 64.6885 162.156 64.4959 163.116C64.2069 165.036 63.1473 166.669 61.6061 167.821C60.0649 168.925 58.1384 169.405 56.2119 169.069C52.2626 168.445 49.6137 164.748 50.2398 160.812C50.3843 159.852 49.71 158.94 48.7468 158.748C47.7835 158.604 46.8684 159.276 46.6758 160.236C45.8089 165.564 49.0357 170.557 53.9965 172.189L53.6593 176.509C53.2259 182.27 56.5491 187.55 61.9433 189.71C65.8444 191.246 70.0827 190.814 73.5022 188.798C75.0916 187.886 76.4883 186.59 77.596 185.054L95.5124 159.756C103.363 148.715 116.126 142.523 129.708 143.291C130.719 143.339 131.538 142.571 131.586 141.611C131.682 140.651 130.96 139.787 129.949 139.739C115.163 138.922 101.196 145.643 92.6227 157.692Z" fill="#102C56"/>
<path fill-rule="evenodd" clip-rule="evenodd" d="M141.51 141.262C141.516 144.708 138.718 147.508 135.26 147.514C131.803 147.52 128.994 144.731 128.988 141.285C128.982 137.838 131.78 135.039 135.238 135.033C138.696 135.027 141.504 137.815 141.51 141.262C141.516 144.708 141.51 141.262 141.51 141.262Z" fill="#FFD18C"/>
<path d="M240 141.85C240 141.85 227.045 155.195 217.171 160.091C207.298 164.988 200.604 165.18 200.604 165.18L168.672 155.771C168.672 155.723 191.453 151.259 209.514 135.082L240 141.85Z" fill="url(#paint3_linear_1878_213024)"/>
<path d="M239.952 141.802C239.952 141.802 226.322 154.187 215.919 158.363C205.516 162.587 198.533 162.299 198.533 162.299L165.156 150.875C165.156 150.923 189.045 147.994 208.069 133.113L239.952 141.802Z" fill="url(#paint4_linear_1878_213024)"/>
<path d="M152.827 39.4111L167.421 45.1716C170.696 46.4677 172.285 50.164 170.985 53.4282C169.684 56.6924 165.976 58.2766 162.701 56.9805L148.108 51.22C144.832 49.8759 143.243 46.1797 144.544 42.9634C145.844 39.6992 149.552 38.1151 152.827 39.4111Z" fill="#46B399"/>
<path d="M167.371 45.1233L157.786 41.3311C161.061 42.6272 162.651 46.3234 161.35 49.5877C160.05 52.8519 156.341 54.436 153.066 53.1399L162.651 56.9322C165.926 58.2283 169.634 56.6442 170.935 53.38C172.235 50.1157 170.646 46.4194 167.371 45.1233Z" fill="url(#paint5_linear_1878_213024)"/>
<path d="M15.2743 122.362L26.448 139.451C28.9524 143.292 27.8929 148.428 24.0399 150.924C20.1869 153.42 15.0335 152.364 12.5291 148.524L1.3554 131.387C-1.14905 127.594 -0.0894749 122.458 3.76351 119.962C7.6165 117.466 12.7699 118.522 15.2743 122.362Z" fill="#46B399"/>
<path d="M26.4466 139.403L19.126 128.218C21.6304 132.059 20.5708 137.195 16.7178 139.691C12.8648 142.187 7.71147 141.131 5.20703 137.291L12.5277 148.476C15.0322 152.316 20.1855 153.372 24.0385 150.876C27.8915 148.38 28.9511 143.243 26.4466 139.403Z" fill="url(#paint6_linear_1878_213024)"/>
<path opacity="0.2" d="M87.0862 24.6739L85.5931 23.2338L91.6616 17.0893L92.4804 17.9054C92.8657 18.2414 93.4436 18.2414 93.7807 17.9054C94.1179 17.5213 94.1179 16.9453 93.7807 16.6093L88.4829 11.4249C88.0976 11.0888 87.5196 11.0888 87.1825 11.4249C86.8454 11.8089 86.8454 12.3849 87.1825 12.721L88.0012 13.537L81.9328 19.6815L80.4398 18.2414L80.1989 18.0014C79.8136 17.6653 79.2357 17.6653 78.8986 18.0014C78.5614 18.3854 78.5614 18.9614 78.8986 19.2975L79.1394 19.5375L61.1748 37.7788C60.6932 38.2589 60.5969 38.9789 60.8858 39.555L62.3307 42.3392L50.7236 54.1481C50.4828 54.3881 50.4828 54.7241 50.7236 54.9641C50.9644 55.2041 51.3497 55.2041 51.5423 54.9641L63.1495 43.2033L65.991 44.5474C66.6172 44.8354 67.3396 44.6914 67.7731 44.2593L85.7376 25.97L85.9784 26.21C86.3637 26.546 86.9417 26.546 87.2788 26.21C87.7123 25.8259 87.7123 25.2499 87.327 24.9139L87.0862 24.6739Z" fill="url(#paint7_linear_1878_213024)"/>
<path opacity="0.2" d="M139.725 18.3855C139.099 17.4255 138.858 16.2254 139.003 15.0733L139.147 13.9692H139.292C139.677 14.0172 140.062 13.7772 140.11 13.3452L140.544 10.513C140.592 10.1289 140.351 9.7449 139.918 9.69689L127.396 7.87276C127.01 7.82475 126.625 8.06477 126.577 8.4968L126.143 11.329C126.095 11.713 126.336 12.0971 126.769 12.1451H126.914L126.769 13.2492C126.577 14.4012 125.999 15.4573 125.132 16.1774L123.398 17.6655C122.868 18.0975 122.531 18.7216 122.435 19.4416L119.93 36.3389C119.738 37.491 120.557 38.5951 121.761 38.7871L136.498 40.9472C137.654 41.1392 138.762 40.3232 138.955 39.1231L141.459 22.2258C141.507 21.6018 141.363 20.8817 140.977 20.3057L139.725 18.3855Z" fill="url(#paint8_linear_1878_213024)"/>
<path opacity="0.2" d="M112.419 185.678C112.178 185.726 111.937 185.534 111.889 185.246L111.214 178.526C111.166 178.286 110.974 178.094 110.685 178.094L104.568 178.718C104.327 178.766 104.135 178.958 104.135 179.246L104.809 185.966C104.857 186.206 104.664 186.446 104.375 186.494L97.6327 187.166C97.3919 187.214 97.1992 187.406 97.1992 187.694L97.8253 193.791C97.8735 194.031 98.0661 194.223 98.3551 194.223L105.098 193.551C105.339 193.503 105.579 193.695 105.628 193.983L106.302 200.703C106.35 200.943 106.543 201.135 106.832 201.135L112.948 200.511C113.189 200.463 113.382 200.271 113.382 199.983L112.707 193.263C112.659 193.023 112.852 192.783 113.141 192.735L119.884 192.063C120.124 192.015 120.317 191.823 120.317 191.535L119.691 185.438C119.643 185.15 119.402 184.958 119.161 185.006L112.419 185.678Z" fill="url(#paint9_linear_1878_213024)"/>
<path opacity="0.2" fill-rule="evenodd" clip-rule="evenodd" d="M153.868 168.662C155.797 169.837 156.405 172.349 155.227 174.272C154.048 176.195 151.528 176.801 149.599 175.626C147.669 174.451 147.061 171.94 148.24 170.017C149.419 168.094 151.939 167.488 153.868 168.662C155.797 169.837 153.868 168.662 153.868 168.662Z" fill="url(#paint10_linear_1878_213024)"/>
<path opacity="0.2" d="M172.381 182.221L178.642 176.076C179.846 174.876 181.82 174.924 182.976 176.124C184.18 177.324 184.132 179.292 182.928 180.444L176.667 186.589C175.511 187.741 173.537 187.741 172.332 186.541C171.128 185.341 171.177 183.373 172.381 182.221Z" fill="url(#paint11_linear_1878_213024)"/>
<defs>
<linearGradient id="paint0_linear_1878_213024" x1="-16.0907" y1="0" x2="-16.0907" y2="275.758" gradientUnits="userSpaceOnUse">
<stop stop-color="#74B973"/>
<stop offset="1" stop-color="#F3FBF2"/>
</linearGradient>
<linearGradient id="paint1_linear_1878_213024" x1="83.5548" y1="57.9092" x2="77.9413" y2="128.504" gradientUnits="userSpaceOnUse">
<stop stop-color="#B4EAB3"/>
<stop offset="1" stop-color="#8CCC8B"/>
</linearGradient>
<linearGradient id="paint2_linear_1878_213024" x1="123.523" y1="147.304" x2="141.323" y2="152.975" gradientUnits="userSpaceOnUse">
<stop stop-color="#FFA620"/>
<stop offset="1" stop-color="#F39200"/>
</linearGradient>
<linearGradient id="paint3_linear_1878_213024" x1="176.67" y1="135.103" x2="173.479" y2="168.596" gradientUnits="userSpaceOnUse">
<stop stop-color="#CBF1CA"/>
<stop offset="1" stop-color="#ADE1AC"/>
</linearGradient>
<linearGradient id="paint4_linear_1878_213024" x1="173.544" y1="133.134" x2="170.677" y2="165.659" gradientUnits="userSpaceOnUse">
<stop stop-color="#D9F8D9"/>
<stop offset="1" stop-color="#C6F1C5"/>
</linearGradient>
<linearGradient id="paint5_linear_1878_213024" x1="153.066" y1="41.3311" x2="153.066" y2="57.3844" gradientUnits="userSpaceOnUse">
<stop stop-color="#FFA620"/>
<stop offset="1" stop-color="#F39200"/>
</linearGradient>
<linearGradient id="paint6_linear_1878_213024" x1="5.20703" y1="128.218" x2="5.20703" y2="152.227" gradientUnits="userSpaceOnUse">
<stop stop-color="#FFA620"/>
<stop offset="1" stop-color="#F39200"/>
</linearGradient>
<linearGradient id="paint7_linear_1878_213024" x1="59.7049" y1="3.7692" x2="34.2999" y2="72.9412" gradientUnits="userSpaceOnUse">
<stop stop-color="#85C284"/>
<stop offset="1" stop-color="#85C284" stop-opacity="0.5"/>
</linearGradient>
<linearGradient id="paint8_linear_1878_213024" x1="130.842" y1="-1.23687" x2="104.704" y2="20.0735" gradientUnits="userSpaceOnUse">
<stop stop-color="#85C284"/>
<stop offset="1" stop-color="#85C284" stop-opacity="0.5"/>
</linearGradient>
<linearGradient id="paint9_linear_1878_213024" x1="76.8493" y1="178.094" x2="76.8493" y2="241.701" gradientUnits="userSpaceOnUse">
<stop stop-color="#85C284"/>
<stop offset="1" stop-color="#85C284" stop-opacity="0.01"/>
</linearGradient>
<linearGradient id="paint10_linear_1878_213024" x1="145.38" y1="174.682" x2="154.725" y2="180.412" gradientUnits="userSpaceOnUse">
<stop stop-color="#85C284"/>
<stop offset="1" stop-color="#85C284" stop-opacity="0.01"/>
</linearGradient>
<linearGradient id="paint11_linear_1878_213024" x1="169.344" y1="175.2" x2="169.344" y2="191.612" gradientUnits="userSpaceOnUse">
<stop stop-color="#85C284"/>
<stop offset="1" stop-color="#85C284" stop-opacity="0.01"/>
</linearGradient>
</defs>
</svg>
