<svg xmlns="http://www.w3.org/2000/svg" version="1.1" xmlns:xlink="http://www.w3.org/1999/xlink" xmlns:svgjs="http://svgjs.com/svgjs" width="512" height="512" x="0" y="0" viewBox="0 0 512 512" style="enable-background:new 0 0 512 512" xml:space="preserve" class=""><g><path d="M376.477 65.023c-27.538 0-55.076 10.485-76.046 31.455a108.464 108.464 0 0 0-6.145 6.694H53.544c-13.976 0-25.544 11.05-25.544 24.75V422.8c0 13.7 11.569 24.75 25.544 24.75H435.68c13.974 0 25.54-11.05 25.54-24.75V238.74c33.001-42.168 30.106-103.458-8.698-142.262-20.97-20.97-48.508-31.455-76.045-31.455zm0 7.954c25.474 0 50.95 9.718 70.389 29.157 38.878 38.878 38.878 101.9 0 140.778-38.878 38.88-101.9 38.88-140.778 0-38.88-38.878-38.88-101.9 0-140.778 19.439-19.439 44.914-29.157 70.389-29.157zm2.71 29.145c-1.772.001-3.548.07-5.326.203-11.376.85-22.798 4.352-33.517 10.097-2.367 1.268-2.837 4.461-.936 6.358l90.898 90.672c1.9 1.895 5.092 1.418 6.355-.95 15.22-28.56 14.574-62.056-9.767-86.396-13.811-13.81-30.573-20-47.706-19.984zm.779 7.817a57.06 57.06 0 0 1 4.364.192c13.259 1.098 25.967 6.691 36.908 17.631 20.468 20.468 22.034 47.09 10.654 71.972l-82.767-82.562c10.168-4.678 20.62-7.295 30.84-7.233zm-326.422 1.233h234.592c-29.139 41.907-25.041 100.061 12.295 137.397 41.94 41.94 110.151 41.94 152.09 0 .238-.237.465-.48.7-.717V422.8c0 2.81-.724 5.463-2.004 7.795l-105.986-133.38c-4.85-6.105-14.081-6.527-19.469-.89l-56.709 59.322c-2.427 2.54-5.093 2.392-7.228-.399l-74.597-97.52c-2.351-3.073-5.816-4.937-9.397-4.931-3.58.005-7.038 1.88-9.38 4.96L37.659 429.932A16.133 16.133 0 0 1 36 422.8V127.922c0-9.205 7.74-16.75 17.544-16.75zm265.895 23.917a4 4 0 0 0-3.516 2.155c-14.782 28.446-14.01 61.554 10.133 85.698h.003v.002c23.934 23.933 56.621 24.834 84.941 10.519 2.42-1.225 2.946-4.45 1.04-6.38l-89.72-90.805c-.848-.848-1.789-1.189-2.88-1.189zm1.297 10.969 81.514 82.497c-24.582 10.592-50.46 8.807-70.536-11.27-20.265-20.263-21.949-46.504-10.978-71.227zm-205.211 4.95c-23.13 0-41.966 18.837-41.966 41.967s18.836 41.964 41.966 41.964c23.13 0 41.967-18.834 41.967-41.964s-18.837-41.967-41.967-41.967zm0 8c18.806 0 33.967 15.16 33.967 33.967s-15.16 33.964-33.967 33.964c-18.806 0-33.966-15.158-33.966-33.964s15.16-33.967 33.966-33.967zm62.32 101.789c.914 0 1.947.375 3.03 1.79l74.595 97.522c4.734 6.188 13.983 6.697 19.366 1.064l56.71-59.321c2.422-2.536 5.24-2.406 7.421.34l106.76 134.35c-2.834 1.89-6.285 3.008-10.047 3.008H53.544c-4.002 0-7.648-1.271-10.575-3.384L174.82 262.598c1.078-1.418 2.111-1.8 3.025-1.801z" fill="#000000" data-original="#000000" class=""></path></g></svg>