<svg width="36" height="36" viewBox="0 0 36 36" fill="none" xmlns="http://www.w3.org/2000/svg">
<path d="M29.5 30.8576C29.5 27.7531 27.2542 23.7499 23.75 23.75H12.25C8.74579 23.7499 6.5 27.7531 6.5 30.8576M0.75 18C0.75 8.47309 8.47309 0.75 18 0.75C27.5269 0.75 35.25 8.47309 35.25 18C35.25 27.5269 27.5269 35.25 18 35.25C8.47309 35.25 0.75 27.5269 0.75 18ZM23.75 12.25C23.75 15.4256 21.1756 18 18 18C14.8244 18 12.25 15.4256 12.25 12.25C12.25 9.07436 14.8244 6.5 18 6.5C21.1756 6.5 23.75 9.07436 23.75 12.25Z" stroke="#4F008C" stroke-width="1.5"/>
</svg>
