<svg width="184" height="133" viewBox="0 0 184 133" fill="none" xmlns="http://www.w3.org/2000/svg">
<g clip-path="url(#clip0_11_643)">
<path d="M64.3759 40.4021L64.2028 40.5794L64.0266 40.4021H64.3759Z" fill="white"/>
<path d="M64.7468 100.693L64.5737 100.867L64.4006 100.693H64.7468Z" fill="white"/>
<g filter="url(#filter0_d_11_643)">
<path d="M69.1793 79.8305L102.04 42.8442C102.503 42.3216 102.117 41.4941 101.421 41.5158C96.7261 41.6745 92.68 41.7523 89.283 41.7523H77.426C76.9376 41.7523 76.5636 41.3105 76.644 40.8252L78.2266 31.2372C78.2915 30.8514 78.6191 30.5715 79.0086 30.5715H120.87C121.352 30.5715 121.723 31.0039 121.652 31.4861L120.493 39.3599C120.471 39.5124 120.403 39.6555 120.301 39.7706L87.3512 77.2328C86.8937 77.7524 87.2646 78.5705 87.9539 78.5581C89.4376 78.5332 91.3602 78.4803 93.7248 78.4025C95.669 78.3466 99.1031 78.3154 104.024 78.3154H115.148C115.637 78.3154 116.011 78.7572 115.93 79.2425L114.348 88.8305C114.283 89.2163 113.955 89.4963 113.566 89.4963H68.3787C67.8903 89.4963 67.5163 89.0545 67.5967 88.5661L68.9907 80.2256C69.0155 80.0763 69.0804 79.9394 69.1824 79.8274L69.1793 79.8305Z" fill="white"/>
</g>
<g filter="url(#filter1_d_11_643)">
<path d="M158.187 31.5016L150.571 77.3915C150.491 77.8768 150.862 78.3186 151.353 78.3186H172.539C173.027 78.3186 173.401 78.7603 173.321 79.2456L171.738 88.8336C171.673 89.2194 171.346 89.4994 170.956 89.4994H136.062C135.574 89.4994 135.2 89.0576 135.28 88.5723L144.794 31.2403C144.859 30.8577 145.187 30.5746 145.576 30.5746H157.408C157.897 30.5746 158.271 31.0163 158.19 31.5016H158.187Z" fill="white"/>
</g>
<g filter="url(#filter2_d_11_643)">
<path d="M47.6259 78.3186H47.6413L45.898 88.8336C45.8331 89.2163 45.5054 89.4994 45.116 89.4994H10.2126C9.72423 89.4994 9.35022 89.0576 9.43059 88.5723L11.0194 79.0154C11.0843 78.6328 11.4119 78.3497 11.8014 78.3497H34.1152L34.1214 78.3186H34.1832L42.0034 31.2403C42.0683 30.8577 42.3959 30.5746 42.7854 30.5746H54.6146C55.1029 30.5746 55.4769 31.0163 55.3966 31.5016L47.6259 78.3186Z" fill="white"/>
</g>
<line x1="-5" y1="109.772" x2="188" y2="109.772" stroke="white"/>
</g>
<defs>
<filter id="filter0_d_11_643" x="63.5858" y="30.5715" width="62.0748" height="70.9248" filterUnits="userSpaceOnUse" color-interpolation-filters="sRGB">
<feFlood flood-opacity="0" result="BackgroundImageFix"/>
<feColorMatrix in="SourceAlpha" type="matrix" values="0 0 0 0 0 0 0 0 0 0 0 0 0 0 0 0 0 0 127 0" result="hardAlpha"/>
<feOffset dy="8"/>
<feGaussianBlur stdDeviation="2"/>
<feComposite in2="hardAlpha" operator="out"/>
<feColorMatrix type="matrix" values="0 0 0 0 0 0 0 0 0 0 0 0 0 0 0 0 0 0 0.25 0"/>
<feBlend mode="normal" in2="BackgroundImageFix" result="effect1_dropShadow_11_643"/>
<feBlend mode="normal" in="SourceGraphic" in2="effect1_dropShadow_11_643" result="shape"/>
</filter>
<filter id="filter1_d_11_643" x="131.269" y="30.5746" width="46.0625" height="70.9248" filterUnits="userSpaceOnUse" color-interpolation-filters="sRGB">
<feFlood flood-opacity="0" result="BackgroundImageFix"/>
<feColorMatrix in="SourceAlpha" type="matrix" values="0 0 0 0 0 0 0 0 0 0 0 0 0 0 0 0 0 0 127 0" result="hardAlpha"/>
<feOffset dy="8"/>
<feGaussianBlur stdDeviation="2"/>
<feComposite in2="hardAlpha" operator="out"/>
<feColorMatrix type="matrix" values="0 0 0 0 0 0 0 0 0 0 0 0 0 0 0 0 0 0 0.25 0"/>
<feBlend mode="normal" in2="BackgroundImageFix" result="effect1_dropShadow_11_643"/>
<feBlend mode="normal" in="SourceGraphic" in2="effect1_dropShadow_11_643" result="shape"/>
</filter>
<filter id="filter2_d_11_643" x="5.41968" y="30.5746" width="53.9878" height="70.9248" filterUnits="userSpaceOnUse" color-interpolation-filters="sRGB">
<feFlood flood-opacity="0" result="BackgroundImageFix"/>
<feColorMatrix in="SourceAlpha" type="matrix" values="0 0 0 0 0 0 0 0 0 0 0 0 0 0 0 0 0 0 127 0" result="hardAlpha"/>
<feOffset dy="8"/>
<feGaussianBlur stdDeviation="2"/>
<feComposite in2="hardAlpha" operator="out"/>
<feColorMatrix type="matrix" values="0 0 0 0 0 0 0 0 0 0 0 0 0 0 0 0 0 0 0.25 0"/>
<feBlend mode="normal" in2="BackgroundImageFix" result="effect1_dropShadow_11_643"/>
<feBlend mode="normal" in="SourceGraphic" in2="effect1_dropShadow_11_643" result="shape"/>
</filter>
<clipPath id="clip0_11_643">
<rect width="184" height="133" fill="white"/>
</clipPath>
</defs>
</svg>
